<svg width="24" height="24" viewBox="0 0 24 24" fill="none" xmlns="http://www.w3.org/2000/svg">
<path d="M10.533 1.27908C5.35298 1.27908 1.12598 5.41908 1.12598 10.5581C1.12598 15.6971 5.35198 19.8371 10.533 19.8371C12.767 19.8371 14.823 19.0671 16.44 17.7791L20.793 22.1321C20.8852 22.2276 20.9956 22.3038 21.1176 22.3562C21.2396 22.4086 21.3708 22.4362 21.5036 22.4373C21.6364 22.4385 21.768 22.4132 21.8909 22.3629C22.0138 22.3126 22.1255 22.2384 22.2194 22.1445C22.3133 22.0506 22.3875 21.9389 22.4378 21.816C22.4881 21.6931 22.5134 21.5615 22.5122 21.4287C22.5111 21.2959 22.4835 21.1647 22.4311 21.0427C22.3787 20.9207 22.3025 20.8103 22.207 20.7181L17.863 16.3741C19.2079 14.7344 19.942 12.6788 19.94 10.5581C19.94 5.41808 15.714 1.27808 10.533 1.27808V1.27908ZM3.12598 10.5581C3.12598 6.55208 6.42798 3.27808 10.533 3.27808C14.638 3.27808 17.94 6.55208 17.94 10.5581C17.94 14.5641 14.638 17.8371 10.533 17.8371C6.42798 17.8371 3.12598 14.5651 3.12598 10.5581Z" fill="white"/>
</svg>
