<svg width="20" height="20" viewBox="0 0 20 20" fill="none" xmlns="http://www.w3.org/2000/svg">
<path fill-rule="evenodd" clip-rule="evenodd" d="M4.58341 4.16667H15.4167C16.1071 4.16667 16.6667 4.72631 16.6667 5.41667C16.6667 6.10702 16.1071 6.66667 15.4167 6.66667H4.58342C3.89306 6.66667 3.33341 6.10702 3.33341 5.41667C3.33341 4.72631 3.89306 4.16667 4.58341 4.16667ZM1.66675 5.41667C1.66675 3.80584 2.97258 2.5 4.58341 2.5H15.4167C17.0276 2.5 18.3334 3.80584 18.3334 5.41667C18.3334 7.0275 17.0276 8.33333 15.4167 8.33333H4.58342C2.97258 8.33333 1.66675 7.0275 1.66675 5.41667ZM3.33341 18.3333H16.6667V16.6667H3.33341V18.3333ZM3.33341 13.3333H16.6667V11.6667H3.33341V13.3333Z" fill="white"/>
</svg>
