<svg width="20" height="20" viewBox="0 0 20 20" fill="none" xmlns="http://www.w3.org/2000/svg">
<path d="M15.4166 3.33331C15.2524 3.33331 15.0899 3.36564 14.9382 3.42846C14.7866 3.49128 14.6488 3.58335 14.5327 3.69942C14.4166 3.8155 14.3245 3.9533 14.2617 4.10495C14.1989 4.25661 14.1666 4.41916 14.1666 4.58331C14.1666 4.74746 14.1989 4.91001 14.2617 5.06166C14.3245 5.21332 14.4166 5.35112 14.5327 5.46719C14.6488 5.58326 14.7866 5.67534 14.9382 5.73816C15.0899 5.80098 15.2524 5.83331 15.4166 5.83331C15.7481 5.83331 16.066 5.70161 16.3005 5.46719C16.5349 5.23277 16.6666 4.91483 16.6666 4.58331C16.6666 4.25179 16.5349 3.93384 16.3005 3.69942C16.066 3.465 15.7481 3.33331 15.4166 3.33331ZM12.4999 4.58331C12.4998 3.90753 12.7343 3.25268 13.1635 2.73065C13.5926 2.20861 14.1897 1.8518 14.8527 1.72116C15.5158 1.59052 16.2036 1.69417 16.7987 2.0144C17.3938 2.33463 17.8592 2.85156 18.1154 3.47688C18.3717 4.10219 18.4028 4.79708 18.2036 5.44282C18.0043 6.08855 17.587 6.64506 17.0229 7.01725C16.4589 7.38944 15.7831 7.55422 15.1111 7.48343C14.439 7.41264 13.8124 7.11068 13.3382 6.62914L7.4999 9.99998L13.3382 13.3708C13.8298 12.8717 14.4846 12.5661 15.1829 12.5101C15.8811 12.454 16.5763 12.6511 17.1412 13.0654C17.7061 13.4797 18.103 14.0834 18.2594 14.7663C18.4158 15.4491 18.3212 16.1655 17.9929 16.7843C17.6645 17.4031 17.1245 17.8831 16.4714 18.1365C15.8183 18.3899 15.0958 18.3998 14.436 18.1643C13.7762 17.9289 13.2232 17.4638 12.8781 16.8541C12.533 16.2445 12.4189 15.531 12.5566 14.8441L6.99824 11.6358C6.64831 12.1527 6.14178 12.5438 5.5531 12.7514C4.96442 12.959 4.32465 12.9723 3.72786 12.7893C3.13106 12.6063 2.60872 12.2367 2.23762 11.7347C1.86653 11.2328 1.66626 10.625 1.66626 10.0008C1.66626 9.37658 1.86653 8.76883 2.23762 8.26688C2.60872 7.76494 3.13106 7.3953 3.72786 7.2123C4.32465 7.02929 4.96442 7.04259 5.5531 7.25022C6.14178 7.45786 6.64831 7.84888 6.99824 8.36581L12.5566 5.15581C12.5189 4.9673 12.4999 4.77554 12.4999 4.58331ZM4.58324 8.74998C4.25172 8.74998 3.93377 8.88167 3.69935 9.11609C3.46493 9.35051 3.33324 9.66846 3.33324 9.99998C3.33324 10.3315 3.46493 10.6494 3.69935 10.8839C3.93377 11.1183 4.25172 11.25 4.58324 11.25C4.91476 11.25 5.2327 11.1183 5.46712 10.8839C5.70154 10.6494 5.83324 10.3315 5.83324 9.99998C5.83324 9.66846 5.70154 9.35051 5.46712 9.11609C5.2327 8.88167 4.91476 8.74998 4.58324 8.74998ZM15.4166 14.1666C15.2524 14.1666 15.0899 14.1989 14.9382 14.2616C14.7865 14.3244 14.6487 14.4164 14.5326 14.5325C14.4165 14.6485 14.3243 14.7863 14.2615 14.9379C14.1986 15.0895 14.1662 15.2521 14.1662 15.4162C14.1661 15.5804 14.1984 15.7429 14.2611 15.8946C14.3239 16.0463 14.4159 16.1841 14.532 16.3002C14.648 16.4163 14.7858 16.5085 14.9374 16.5713C15.089 16.6342 15.2516 16.6666 15.4157 16.6666C15.7473 16.6668 16.0652 16.5352 16.2997 16.3008C16.5342 16.0665 16.666 15.7486 16.6662 15.4171C16.6663 15.0855 16.5347 14.7676 16.3003 14.5331C16.066 14.2986 15.7481 14.1668 15.4166 14.1666Z" fill="white"/>
</svg>
