<svg width="15" height="14" viewBox="0 0 15 14" fill="none" xmlns="http://www.w3.org/2000/svg">
<path d="M2.12929 4.69176C2.23868 4.5824 2.38703 4.52096 2.5417 4.52096C2.69638 4.52096 2.84473 4.5824 2.95412 4.69176L7.50004 9.23767L12.046 4.69176C12.0998 4.63604 12.1641 4.5916 12.2353 4.56103C12.3065 4.53046 12.383 4.51437 12.4605 4.51369C12.5379 4.51302 12.6147 4.52778 12.6864 4.55711C12.7581 4.58644 12.8232 4.62976 12.878 4.68453C12.9328 4.7393 12.9761 4.80443 13.0054 4.87612C13.0348 4.94781 13.0495 5.02462 13.0489 5.10207C13.0482 5.17953 13.0321 5.25607 13.0015 5.32724C12.9709 5.39841 12.9265 5.46278 12.8708 5.51659L7.50004 10.8873L2.12929 5.51659C2.01993 5.4072 1.9585 5.25885 1.9585 5.10417C1.9585 4.94949 2.01993 4.80115 2.12929 4.69176Z" fill="white"/>
</svg>
