<svg width="24" height="24" viewBox="0 0 24 24" fill="none" xmlns="http://www.w3.org/2000/svg">
<path fill-rule="evenodd" clip-rule="evenodd" d="M16.9999 19.4845C15.5698 20.4417 13.8501 21 12 21C10.1499 21 8.4301 20.4417 7 19.4845V19.4191C7.00021 19.3603 7.00168 19.3016 7.00439 19.243C7.01908 18.9262 7.07026 18.614 7.15584 18.3137C7.2316 18.0479 7.33415 17.7919 7.46181 17.5506C7.76427 16.9788 8.19519 16.5122 8.70407 16.1901L9.96419 15.4048C10.1179 15.3095 10.2434 15.1826 10.336 15.0381C10.4266 14.8969 10.4848 14.7405 10.5103 14.5803C10.5365 14.4209 10.5304 14.2573 10.4918 14.0997C10.4522 13.9375 10.3781 13.7816 10.2705 13.6449L10.2652 13.6381L10.2597 13.6315C9.97447 13.2817 9.74927 12.8795 9.59389 12.4446C9.46522 12.0844 9.38443 11.7018 9.35705 11.3077C9.33385 10.8567 9.38357 10.4052 9.5023 9.97159C9.68762 9.38096 10.0351 8.88042 10.4831 8.53176C10.9332 8.18147 11.4637 8 11.9993 8C12.5348 8 13.0653 8.18147 13.5155 8.53176C13.964 8.88084 14.3118 9.38218 14.4969 9.97375C14.6171 10.4041 14.6668 10.8552 14.6429 11.3058C14.6049 11.8581 14.4617 12.3897 14.2283 12.8685C14.1036 13.1243 13.9533 13.3645 13.78 13.5846C13.7668 13.6015 13.7533 13.6182 13.7397 13.6348L13.732 13.6446C13.626 13.7781 13.5524 13.9303 13.5119 14.0887L13.5091 14.0997L13.5066 14.1108C13.452 14.3466 13.4694 14.5952 13.5587 14.823C13.6483 15.0512 13.8101 15.257 14.0344 15.3973L15.43 16.2669C15.752 16.4931 16.0389 16.779 16.2772 17.1141C16.3733 17.2493 16.4615 17.3925 16.5408 17.5429C16.6684 17.785 16.7708 18.0419 16.8463 18.3086C16.9315 18.6098 16.9821 18.9229 16.996 19.2405C16.9983 19.2928 16.9996 19.3452 16.9999 19.3977V19.4845ZM18.8049 17.8903C18.794 17.8481 18.7826 17.8061 18.7708 17.7642C18.6579 17.3652 18.5039 16.9781 18.31 16.6103C18.1897 16.3819 18.055 16.1631 17.9071 15.955C17.4929 15.3726 16.9734 14.874 16.3741 14.4929L16.3672 14.4885L15.8153 14.1395C15.8904 14.0106 15.9606 13.879 16.026 13.745C16.3747 13.0298 16.5844 12.2437 16.6389 11.4337L16.6396 11.421C16.6764 10.7453 16.6017 10.0674 16.4183 9.41814L16.415 9.4065L16.4114 9.39495C16.1118 8.42475 15.5331 7.56764 14.7438 6.95339C13.9531 6.33811 12.9931 6 11.9993 6C11.0055 6 10.0454 6.33811 9.25478 6.95339C8.46548 7.56764 7.88679 8.42475 7.58714 9.39495L7.58289 9.40872L7.57904 9.42261C7.3995 10.0695 7.32428 10.7449 7.36025 11.4212L7.36064 11.4284L7.36113 11.4357C7.42655 12.4008 7.71231 13.3331 8.19315 14.1519L7.64346 14.4944L7.63818 14.4977C6.8213 15.0139 6.15343 15.7467 5.6939 16.6155C5.50003 16.982 5.34578 17.3678 5.23243 17.7656C5.22034 17.808 5.20872 17.8505 5.19757 17.8932C3.8285 16.3142 3 14.2539 3 12C3 7.02944 7.02944 3 12 3C16.9706 3 21 7.02944 21 12C21 14.2525 20.1725 16.3117 18.8049 17.8903ZM23 12C23 18.0751 18.0751 23 12 23C5.92487 23 1 18.0751 1 12C1 5.92487 5.92487 1 12 1C18.0751 1 23 5.92487 23 12Z" fill="white"/>
</svg>
