<svg width="28" height="28" viewBox="0 0 28 28" fill="none" xmlns="http://www.w3.org/2000/svg">
<path d="M6.65004 3.5C6.43345 3.5 6.22572 3.58604 6.07257 3.7392C5.91942 3.89235 5.83337 4.10007 5.83337 4.31667V23.6833C5.83337 23.8999 5.91942 24.1076 6.07257 24.2608C6.22572 24.414 6.43345 24.5 6.65004 24.5H9.68337C9.89997 24.5 10.1077 24.414 10.2608 24.2608C10.414 24.1076 10.5 23.8999 10.5 23.6833V4.31667C10.5 4.10007 10.414 3.89235 10.2608 3.7392C10.1077 3.58604 9.89997 3.5 9.68337 3.5H6.65004ZM18.3167 3.5C18.1001 3.5 17.8924 3.58604 17.7392 3.7392C17.5861 3.89235 17.5 4.10007 17.5 4.31667V23.6833C17.5 23.8999 17.5861 24.1076 17.7392 24.2608C17.8924 24.414 18.1001 24.5 18.3167 24.5H21.35C21.5666 24.5 21.7744 24.414 21.9275 24.2608C22.0807 24.1076 22.1667 23.8999 22.1667 23.6833V4.31667C22.1667 4.10007 22.0807 3.89235 21.9275 3.7392C21.7744 3.58604 21.5666 3.5 21.35 3.5H18.3167Z" fill="#191919"/>
</svg>
