<svg width="24" height="24" viewBox="0 0 24 24" fill="none" xmlns="http://www.w3.org/2000/svg">
<path d="M8.51415 1.4183C7.41753 1.16425 6.27411 1.19831 5.19445 1.51718C4.11478 1.83606 3.13537 2.42897 2.35092 3.23859C1.56646 4.04821 1.00348 5.04717 0.716397 6.13888C0.429318 7.2306 0.427851 8.37815 0.712138 9.4706C0.963073 10.4209 1.42626 11.303 2.06615 12.0477L10.3836 21.9933C10.5814 22.2302 10.8285 22.4207 11.1076 22.5515C11.3867 22.6822 11.691 22.75 11.999 22.75C12.3071 22.75 12.6114 22.6822 12.8905 22.5515C13.1696 22.4207 13.4167 22.2302 13.6144 21.9933L21.933 12.0477C22.5727 11.3023 23.0353 10.4208 23.2856 9.4697C23.5359 8.51864 23.5675 7.52294 23.3779 6.55784L22.8656 6.65958L23.3779 6.55574C23.1143 5.2379 22.4565 4.03199 21.4922 3.09876C20.5279 2.16553 19.303 1.54933 17.9807 1.33229H17.9786C16.9853 1.17308 15.9687 1.24646 15.0083 1.54668C14.0479 1.8469 13.1697 2.36584 12.4423 3.06295C12.3219 3.17523 12.1635 3.23764 11.999 3.23764C11.8346 3.23764 11.6762 3.17523 11.5557 3.06295C10.7068 2.25104 9.65698 1.68299 8.51415 1.4183Z" fill="#65D46E"/>
</svg>
